<svg width="28" height="23" viewBox="0 0 28 23" fill="none" xmlns="http://www.w3.org/2000/svg">
<path d="M1.337 1.94854H6.11536L8.35418 14.7465C8.42101 15.0807 8.68833 15.3146 9.02248 15.3146H24.0593C24.6608 15.3146 25.0283 14.7131 25.0617 14.2453L27.0666 5.69104C27.0666 5.65762 27.1001 5.59079 27.1001 5.52396C27.1001 5.08956 26.7993 4.58834 26.0976 4.58834H11.0942C10.7267 4.58834 10.4259 4.88907 10.4259 5.25664C10.4259 5.62421 10.7267 5.92494 11.0942 5.92494H25.6298L23.7585 13.9446H9.59054L7.35172 1.18C7.28489 0.845845 7.01757 0.611938 6.68342 0.611938H1.337C0.969437 0.611938 0.668701 0.912674 0.668701 1.28024C0.668701 1.64781 0.969437 1.94854 1.337 1.94854Z" fill="#ffffff"/>
<path d="M21.8205 23C23.3576 23 24.5939 21.7303 24.5939 20.1597C24.5939 18.6895 23.4912 17.4865 22.1212 17.3195C22.0878 17.3195 22.021 17.3195 21.9875 17.3195H11.6957C11.6623 17.3195 11.6289 17.3195 11.6289 17.3195C11.5954 17.3195 11.5286 17.3195 11.4952 17.3195C9.9581 17.3195 8.72174 18.5892 8.72174 20.1597C8.72174 21.7303 9.9581 23 11.4952 23C13.0323 23 14.2687 21.7303 14.2687 20.1597C14.2687 19.5917 14.1016 19.0905 13.8343 18.6561H19.5148C19.2475 19.0905 19.0804 19.5917 19.0804 20.1597C19.0804 21.7303 20.3168 23 21.8205 23ZM21.8205 18.6561C22.589 18.6561 23.2573 19.3244 23.2573 20.1597C23.2573 20.9951 22.6224 21.6634 21.8205 21.6634C21.0185 21.6634 20.3836 20.9951 20.3836 20.1597C20.3836 19.3244 21.0519 18.6561 21.8205 18.6561ZM11.4618 21.6634C10.6932 21.6634 10.0249 20.9951 10.0249 20.1597C10.0249 19.3244 10.6932 18.6561 11.4618 18.6561C12.2303 18.6561 12.8986 19.3244 12.8986 20.1597C12.8986 20.9951 12.2637 21.6634 11.4618 21.6634Z" fill="#ffffff"/>
</svg>
