<svg width="22" height="22" viewBox="0 0 22 22" fill="none" xmlns="http://www.w3.org/2000/svg">
<path fill-rule="evenodd" clip-rule="evenodd" d="M11 20.6C16.3019 20.6 20.6 16.3019 20.6 11C20.6 5.69807 16.3019 1.4 11 1.4C5.69807 1.4 1.4 5.69807 1.4 11C1.4 16.3019 5.69807 20.6 11 20.6ZM11 22C17.0751 22 22 17.0751 22 11C22 4.92487 17.0751 0 11 0C4.92487 0 0 4.92487 0 11C0 17.0751 4.92487 22 11 22Z" fill="#ffffff"/>
<path d="M12.9053 21.4V14.118H15.2194L15.6654 11.1224H12.9053V9.20615C12.9053 9.20615 12.8211 8.43336 13.326 7.96449C13.8309 7.49561 14.6219 7.53902 14.6219 7.53902H15.8V5.0036C15.8 5.0036 14.9333 4.83648 13.671 4.80207C9.49726 4.6883 9.75812 9.29298 9.75812 9.29298V11.1224H7.2V14.118H9.75812L9.7581 21.3973L12.9053 21.4Z" fill="#ffffff"/>
</svg>
