<svg width="22" height="22" viewBox="0 0 22 22" fill="none" xmlns="http://www.w3.org/2000/svg">
<path fill-rule="evenodd" clip-rule="evenodd" d="M17.8095 1.53651H4.19048C2.72473 1.53651 1.53651 2.72473 1.53651 4.19048V17.8095C1.53651 19.2753 2.72473 20.4635 4.19048 20.4635H17.8095C19.2753 20.4635 20.4635 19.2753 20.4635 17.8095V4.19048C20.4635 2.72473 19.2753 1.53651 17.8095 1.53651ZM4.19048 0C1.87614 0 0 1.87614 0 4.19048V17.8095C0 20.1239 1.87614 22 4.19048 22H17.8095C20.1239 22 22 20.1239 22 17.8095V4.19048C22 1.87614 20.1239 0 17.8095 0H4.19048Z" fill="#ffffff"/>
<path fill-rule="evenodd" clip-rule="evenodd" d="M11 15.4571C13.4616 15.4571 15.4571 13.4616 15.4571 11C15.4571 8.53839 13.4616 6.54286 11 6.54286C8.53839 6.54286 6.54286 8.53839 6.54286 11C6.54286 13.4616 8.53839 15.4571 11 15.4571ZM11 17C14.3137 17 17 14.3137 17 11C17 7.68629 14.3137 5 11 5C7.68629 5 5 7.68629 5 11C5 14.3137 7.68629 17 11 17Z" fill="#ffffff"/>
<path d="M19 4.5C19 5.32843 18.3284 6 17.5 6C16.6716 6 16 5.32843 16 4.5C16 3.67157 16.6716 3 17.5 3C18.3284 3 19 3.67157 19 4.5Z" fill="#ffffff"/>
</svg>
