<svg width="26" height="23" viewBox="0 0 26 23" fill="none" xmlns="http://www.w3.org/2000/svg">
<path d="M14.0203 0C13.4625 0 13.0101 0.45267 13.0101 1.01102C13.0101 1.56937 13.4628 2.02204 14.0203 2.02204C19.2458 2.02204 23.4975 6.27381 23.4975 11.5001C23.4975 16.7262 19.2458 20.978 14.0203 20.978C9.22485 20.978 5.25226 17.3962 4.63062 12.7677L5.33816 13.4756C5.53567 13.6731 5.79422 13.7714 6.05305 13.7714C6.31188 13.7714 6.57043 13.6731 6.76794 13.4756C7.16269 13.0805 7.16269 12.4405 6.76794 12.0455L4.24689 9.52444C3.85215 9.1297 3.21185 9.1297 2.81711 9.52444L0.296058 12.0455C-0.0986861 12.4402 -0.0986861 13.0802 0.296058 13.4756C0.690802 13.87 1.3311 13.87 1.72612 13.4756L2.57721 12.6245C3.14432 18.4394 8.05983 23 14.0206 23C20.361 23 25.5201 17.8409 25.5201 11.5001C25.5198 5.15908 20.361 0 14.0203 0Z" fill="#0E3F19"/>
<path d="M10.2112 17.0969C9.93688 17.0969 9.66279 16.9927 9.45341 16.7833C9.03493 16.3648 9.03464 15.6861 9.45312 15.2676L12.8032 11.9164V5.14269C12.8032 4.55072 13.283 4.07092 13.8744 4.07092C14.4661 4.07092 14.9454 4.55072 14.9454 5.14269V12.3597C14.9454 12.644 14.8329 12.9164 14.632 13.1175L10.9691 16.783C10.76 16.9921 10.4856 17.0969 10.2112 17.0969Z" fill="#0E3F19"/>
<path d="M21.6561 12.1595H20.5467C20.1565 12.1595 19.8403 11.8433 19.8403 11.4531C19.8403 11.0628 20.1565 10.7466 20.5467 10.7466H21.6561C22.0463 10.7466 22.3625 11.0628 22.3625 11.4531C22.3625 11.8433 22.046 12.1595 21.6561 12.1595Z" fill="#0E3F19"/>
<path d="M19.0203 17.6974C18.8395 17.6974 18.6589 17.6284 18.5207 17.4905L17.7363 16.7061C17.4603 16.4301 17.4603 15.983 17.7363 15.7072C18.0124 15.4315 18.4594 15.4312 18.7352 15.7072L19.5196 16.4917C19.7957 16.7677 19.7957 17.2147 19.5196 17.4905C19.382 17.6284 19.2012 17.6974 19.0203 17.6974Z" fill="#0E3F19"/>
<path d="M13.4828 19.9911C13.0926 19.9911 12.7764 19.6749 12.7764 19.2847V18.175C12.7764 17.7848 13.0926 17.4686 13.4828 17.4686C13.873 17.4686 14.1892 17.7848 14.1892 18.175V19.2847C14.1892 19.6749 13.873 19.9911 13.4828 19.9911Z" fill="#0E3F19"/>
<path d="M18.2362 7.40577C18.0553 7.40577 17.8748 7.33683 17.7366 7.19893C17.4605 6.92287 17.4605 6.47585 17.7366 6.19978L18.5207 5.41538C18.7962 5.13931 19.2438 5.13959 19.5196 5.41538C19.7956 5.69145 19.7956 6.13846 19.5196 6.41453L18.7355 7.19893C18.5979 7.33683 18.417 7.40577 18.2362 7.40577Z" fill="#0E3F19"/>
</svg>
