<svg width="37" height="34" viewBox="0 0 37 34" fill="none" xmlns="http://www.w3.org/2000/svg">
<path d="M20.3271 0C19.5184 0 18.8625 0.656298 18.8625 1.46581C18.8625 2.27533 19.5188 2.93163 20.3271 2.93163C27.9032 2.93163 34.0676 9.09599 34.0676 16.6733C34.0676 24.2502 27.9032 30.4146 20.3271 30.4146C13.3745 30.4146 7.61492 25.2216 6.71363 18.5111L7.73946 19.5373C8.02582 19.8237 8.40067 19.9663 8.77593 19.9663C9.15119 19.9663 9.52604 19.8237 9.81241 19.5373C10.3847 18.9646 10.3847 18.0367 9.81241 17.464L6.1573 13.8089C5.58498 13.2366 4.65666 13.2366 4.08435 13.8089L0.429236 17.464C-0.143079 18.0363 -0.143079 18.9642 0.429236 19.5373C1.00155 20.1092 1.92987 20.1092 2.5026 19.5373L3.73653 18.3034C4.55875 26.7341 11.6854 33.3462 20.3275 33.3462C29.5202 33.3462 37 25.8664 37 16.6733C36.9996 7.47982 29.5202 0 20.3271 0Z" fill="#E2AC38"/>
<path d="M14.805 24.7877C14.4072 24.7877 14.0098 24.6365 13.7062 24.3329C13.0995 23.7262 13.0991 22.7422 13.7058 22.1354L18.5629 17.2767V7.45599C18.5629 6.59773 19.2585 5.9021 20.116 5.9021C20.9738 5.9021 21.6686 6.59773 21.6686 7.45599V17.9195C21.6686 18.3316 21.5056 18.7265 21.2143 19.0182L15.9037 24.3325C15.6006 24.6357 15.2028 24.7877 14.805 24.7877Z" fill="#E2AC38"/>
<path d="M31.3977 17.6291H29.7893C29.2236 17.6291 28.7651 17.1706 28.7651 16.6049C28.7651 16.0391 29.2236 15.5807 29.7893 15.5807H31.3977C31.9635 15.5807 32.4219 16.0391 32.4219 16.6049C32.4219 17.1706 31.963 17.6291 31.3977 17.6291Z" fill="#E2AC38"/>
<path d="M27.5763 25.6584C27.3141 25.6584 27.0523 25.5584 26.852 25.3585L25.7147 24.2213C25.3145 23.821 25.3145 23.1729 25.7147 22.7731C26.115 22.3732 26.7631 22.3728 27.1629 22.7731L28.3002 23.9103C28.7004 24.3106 28.7004 24.9587 28.3002 25.3585C28.1007 25.5584 27.8385 25.6584 27.5763 25.6584Z" fill="#E2AC38"/>
<path d="M19.5481 28.9841C18.9824 28.9841 18.5239 28.5256 18.5239 27.9599V26.3511C18.5239 25.7853 18.9824 25.3269 19.5481 25.3269C20.1139 25.3269 20.5723 25.7853 20.5723 26.3511V27.9599C20.5723 28.5256 20.1139 28.9841 19.5481 28.9841Z" fill="#E2AC38"/>
<path d="M26.4395 10.7372C26.1773 10.7372 25.9156 10.6372 25.7152 10.4373C25.315 10.037 25.315 9.38893 25.7152 8.98868L26.8521 7.85143C27.2515 7.45118 27.9004 7.45158 28.3003 7.85143C28.7005 8.25168 28.7005 8.89978 28.3003 9.30003L27.1634 10.4373C26.9639 10.6372 26.7017 10.7372 26.4395 10.7372Z" fill="#E2AC38"/>
</svg>
